<?xml version="1.0" encoding="utf-8"?>
<!-- Generator: Adobe Illustrator 17.0.0, SVG Export Plug-In . SVG Version: 6.00 Build 0)  -->
<!DOCTYPE svg PUBLIC "-//W3C//DTD SVG 1.1//EN" "http://www.w3.org/Graphics/SVG/1.1/DTD/svg11.dtd">
<svg version="1.1" id="Layer_1" xmlns="http://www.w3.org/2000/svg" xmlns:xlink="http://www.w3.org/1999/xlink" x="0px" y="0px"
	 width="612px" height="792px" viewBox="0 0 612 792" enable-background="new 0 0 612 792" xml:space="preserve">
<g>
	<path fill="#3C65AD" d="M493.109,304.681v182.1c-4.663,39.147-40.798,42.485-40.798,42.485H263.522
		c-41.673-13.079-36.944-50.693-36.944-50.693V312.514c0-47.519,42.572-49.78,42.572-49.78h179.204
		C448.354,262.734,488.223,262.734,493.109,304.681z"/>
	<path fill="#FFFFFF" d="M417.729,502.528V396h32.23v-35.172l-32.23-0.388l0.538-14.374c0,0,0.25-9.961,12.218-11.554l19.474-0.663
		v-35.117h-41.824c0,0-33.076,2.08-36.884,38.256v23.141h-29.585V396h29.732v106.528H417.729z"/>
</g>
</svg>
