<?xml version="1.0" encoding="utf-8"?>
<!-- Generator: Adobe Illustrator 17.0.0, SVG Export Plug-In . SVG Version: 6.00 Build 0)  -->
<!DOCTYPE svg PUBLIC "-//W3C//DTD SVG 1.1//EN" "http://www.w3.org/Graphics/SVG/1.1/DTD/svg11.dtd">
<svg version="1.1" id="Layer_1" xmlns="http://www.w3.org/2000/svg" xmlns:xlink="http://www.w3.org/1999/xlink" x="0px" y="0px"
	 width="612px" height="792px" viewBox="0 0 612 792" enable-background="new 0 0 612 792" xml:space="preserve">
<g>
	<path fill="#2B435F" d="M441.109,304.681v182.1c-4.663,39.147-40.798,42.485-40.798,42.485H211.522
		c-41.673-13.079-36.944-50.693-36.944-50.693V312.514c0-47.519,42.572-49.78,42.572-49.78h179.204
		C396.354,262.734,436.223,262.734,441.109,304.681z"/>
</g>
<path fill="#FFFFFF" d="M287.814,295.367c0,0,1.252,37.3-40.056,55.659v25.452h24.618l0.211,79.69c0,0-0.208,29.731,39.503,32.226
	c0,0,23.494,2.911,55.928-6.861v-30.355c0,0-52.39,22.781-55.096-13.514l0.208-61.125h49.898l0.208-30.771l-49.522-0.208v-50.193
	H287.814z"/>
</svg>
