<?xml version="1.0" encoding="utf-8"?>
<!-- Generator: Adobe Illustrator 17.0.0, SVG Export Plug-In . SVG Version: 6.00 Build 0)  -->
<!DOCTYPE svg PUBLIC "-//W3C//DTD SVG 1.1//EN" "http://www.w3.org/Graphics/SVG/1.1/DTD/svg11.dtd">
<svg version="1.1" id="Layer_1" xmlns="http://www.w3.org/2000/svg" xmlns:xlink="http://www.w3.org/1999/xlink" x="0px" y="0px"
	 width="612px" height="792px" viewBox="0 0 612 792" enable-background="new 0 0 612 792" xml:space="preserve">
<path fill="#54A0D6" d="M425.883,304.221v183.017c-4.687,39.344-41.003,42.698-41.003,42.698H195.14
	c-41.882-13.145-37.13-50.948-37.13-50.948V312.094c0-47.758,42.787-50.03,42.787-50.03h180.106
	C380.903,262.063,420.973,262.063,425.883,304.221z"/>
<path fill="#FFFFFF" d="M346.723,341.279c0,0,18.443-5.175,20.831-8.226c0,0,0.133,7.696-13.622,18.435c0,0-0.978,0.635,0.894,0.591
	c0,0,12.895-1.535,17.168-5.2c0,0-5.473,9.824-16.077,16.764c0,0,7.719,42.127-36.039,79.255c0,0-48.811,42.413-108.569,3.296
	c0,0,23.153,4.741,48.976-12.659c0,0,0.802-0.913-0.514-0.794c0,0-19.773,2.185-29.636-21.084c-0.209-0.493-0.392-1.352-0.592-1.868
	c0,0,6.432,2.012,14.946-0.106c0,0-26.037-3.941-26.418-32.459c0,0,4.645,3.547,14.862,4.138c0,0-24.1-15.787-10.081-43.825
	c0,0,22.291,30.44,67.752,33.644c0,0-5.488-20.667,11.936-33.484C302.539,337.697,326.027,319.042,346.723,341.279z"/>
</svg>
